<mxfile host="app.diagrams.net" modified="2023-09-10T16:30:06.665Z" agent="Mozilla/5.0 (Windows NT 10.0; Win64; x64) AppleWebKit/537.36 (KHTML, like Gecko) Chrome/116.0.0.0 Safari/537.36" version="21.7.4" etag="_p356AyqQDFbtyWXNoFE" type="github">
  <diagram name="페이지-1" id="ps_ZQPUePgTQI7_nk2Fc">
    <mxGraphModel>
      <root>
        <mxCell id="0" />
        <mxCell id="1" parent="0" />
      </root>
    </mxGraphModel>
  </diagram>
</mxfile>
